<?xml version="1.0" encoding="UTF-8" standalone="no"?>
<svg
   id="Calque_1"
   data-name="Calque 1"
   viewBox="0 0 500.00001 162"
   version="1.1"
   width="500"
   height="162"
   xmlns="http://www.w3.org/2000/svg"
   xmlns:svg="http://www.w3.org/2000/svg">
  <defs
     id="defs1">
    <style
       id="style1">
      .cls-1 {
        fill: #26507d;
      }

      .cls-1, .cls-2 {
        stroke-width: 0px;
      }

      .cls-2 {
        fill: #008a8c;
      }
    </style>
  </defs>
  <g
     id="g8"
     transform="translate(53.3,31.73)">
    <path
       class="cls-1"
       d="m 90.38,74.69 c -3.06,0 -6.11,-0.09 -9.15,-0.28 -3.04,-0.19 -6.19,-0.63 -9.47,-1.33 V 18.9 c 2.58,-0.48 5.4,-0.85 8.46,-1.09 3.06,-0.24 5.91,-0.36 8.54,-0.36 3.55,0 6.81,0.26 9.79,0.77 2.98,0.51 5.55,1.38 7.7,2.62 2.15,1.24 3.83,2.86 5.04,4.88 1.21,2.02 1.81,4.5 1.81,7.46 0,4.46 -2.15,7.98 -6.45,10.56 3.55,1.34 5.97,3.17 7.25,5.48 1.29,2.31 1.93,4.92 1.93,7.82 0,5.86 -2.14,10.27 -6.41,13.22 -4.27,2.96 -10.63,4.43 -19.06,4.43 z M 84.01,40.03 h 6.13 c 3.87,0 6.64,-0.5 8.3,-1.49 1.67,-0.99 2.5,-2.59 2.5,-4.8 0,-2.21 -0.86,-3.84 -2.58,-4.76 -1.72,-0.91 -4.25,-1.37 -7.58,-1.37 -1.08,0 -2.23,0.01 -3.47,0.04 -1.24,0.03 -2.34,0.09 -3.31,0.2 v 12.17 z m 0,9.59 v 14.43 c 0.91,0.11 1.91,0.19 2.98,0.24 1.07,0.05 2.26,0.08 3.55,0.08 3.76,0 6.8,-0.54 9.11,-1.61 2.31,-1.07 3.47,-3.06 3.47,-5.97 0,-2.58 -0.97,-4.42 -2.9,-5.52 -1.93,-1.1 -4.7,-1.65 -8.3,-1.65 h -7.9 z"
       id="path1" />
    <path
       class="cls-1"
       d="m 164.79,52.68 c 0,3.33 -0.48,6.38 -1.45,9.15 -0.97,2.77 -2.37,5.13 -4.19,7.09 -1.83,1.96 -4.02,3.48 -6.57,4.55 -2.55,1.07 -5.41,1.61 -8.58,1.61 -3.17,0 -5.95,-0.54 -8.5,-1.61 -2.55,-1.07 -4.74,-2.59 -6.57,-4.55 -1.83,-1.96 -3.25,-4.33 -4.27,-7.09 -1.02,-2.77 -1.53,-5.82 -1.53,-9.15 0,-3.33 0.52,-6.37 1.57,-9.11 1.05,-2.74 2.5,-5.08 4.35,-7.01 1.85,-1.93 4.06,-3.44 6.61,-4.51 2.55,-1.07 5.33,-1.61 8.34,-1.61 3.01,0 5.87,0.54 8.42,1.61 2.55,1.08 4.74,2.58 6.57,4.51 1.83,1.93 3.25,4.27 4.27,7.01 1.02,2.74 1.53,5.78 1.53,9.11 z m -12.25,0 c 0,-3.71 -0.74,-6.62 -2.22,-8.75 -1.48,-2.12 -3.59,-3.18 -6.33,-3.18 -2.74,0 -4.86,1.06 -6.37,3.18 -1.5,2.12 -2.26,5.04 -2.26,8.75 0,3.71 0.75,6.65 2.26,8.83 1.5,2.18 3.63,3.26 6.37,3.26 2.74,0 4.85,-1.09 6.33,-3.26 1.48,-2.18 2.22,-5.12 2.22,-8.83 z"
       id="path2" />
    <path
       class="cls-1"
       d="m 189.29,30.43 c 3.55,0 6.5,0.4 8.87,1.21 2.36,0.81 4.26,1.96 5.68,3.47 1.42,1.51 2.43,3.33 3.02,5.48 0.59,2.15 0.89,4.54 0.89,7.17 v 24.99 c -1.72,0.38 -4.11,0.82 -7.17,1.33 -3.06,0.51 -6.77,0.77 -11.12,0.77 -2.74,0 -5.23,-0.24 -7.46,-0.73 -2.23,-0.48 -4.15,-1.28 -5.76,-2.38 -1.61,-1.1 -2.85,-2.54 -3.71,-4.31 -0.86,-1.77 -1.29,-3.95 -1.29,-6.53 0,-2.58 0.5,-4.57 1.49,-6.29 0.99,-1.72 2.32,-3.09 3.99,-4.11 1.67,-1.02 3.57,-1.76 5.72,-2.22 2.15,-0.46 4.38,-0.69 6.69,-0.69 1.56,0 2.94,0.07 4.15,0.2 1.21,0.13 2.19,0.31 2.94,0.52 v -1.13 c 0,-2.04 -0.62,-3.68 -1.85,-4.92 -1.24,-1.24 -3.39,-1.85 -6.45,-1.85 -2.04,0 -4.06,0.15 -6.05,0.44 -1.99,0.3 -3.71,0.71 -5.16,1.25 l -1.53,-9.67 c 0.7,-0.21 1.57,-0.44 2.62,-0.69 1.05,-0.24 2.19,-0.46 3.43,-0.65 1.24,-0.19 2.54,-0.35 3.91,-0.48 1.37,-0.13 2.75,-0.2 4.15,-0.2 z m 0.97,35.15 c 1.18,0 2.31,-0.03 3.39,-0.08 1.07,-0.05 1.93,-0.13 2.58,-0.24 v -9.11 c -0.48,-0.11 -1.21,-0.21 -2.18,-0.32 -0.97,-0.11 -1.85,-0.16 -2.66,-0.16 -1.13,0 -2.19,0.07 -3.18,0.2 -1,0.13 -1.87,0.39 -2.62,0.77 -0.75,0.38 -1.34,0.89 -1.77,1.53 -0.43,0.65 -0.65,1.45 -0.65,2.42 0,1.88 0.63,3.18 1.89,3.91 1.26,0.73 3,1.09 5.2,1.09 z"
       id="path3" />
    <path
       class="cls-1"
       d="M 229.18,73.96 C 226.43,68.59 223.64,62.3 220.8,55.1 217.97,47.9 215.28,40.05 212.75,31.56 h 12.74 c 0.54,2.1 1.17,4.37 1.9,6.81 0.73,2.45 1.48,4.92 2.27,7.42 0.78,2.5 1.56,4.93 2.35,7.3 0.78,2.37 1.55,4.51 2.31,6.45 0.7,-1.93 1.46,-4.08 2.26,-6.45 0.81,-2.36 1.6,-4.8 2.39,-7.3 0.79,-2.5 1.54,-4.97 2.27,-7.42 0.73,-2.44 1.36,-4.72 1.9,-6.81 h 12.42 c -2.53,8.49 -5.22,16.34 -8.04,23.54 -2.83,7.2 -5.62,13.49 -8.37,18.86 z"
       id="path4" />
    <path
       class="cls-1"
       d="m 275.07,19.31 c 0,2.2 -0.71,3.94 -2.14,5.2 -1.42,1.26 -3.1,1.89 -5.04,1.89 -1.94,0 -3.62,-0.63 -5.04,-1.89 -1.42,-1.26 -2.14,-3 -2.14,-5.2 0,-2.2 0.71,-3.94 2.14,-5.2 1.42,-1.26 3.1,-1.89 5.04,-1.89 1.94,0 3.61,0.63 5.04,1.89 1.42,1.26 2.14,3 2.14,5.2 z m -1.13,54.66 H 261.93 V 31.56 h 12.01 v 42.4 z"
       id="path5" />
    <path
       class="cls-1"
       d="m 317.06,39.62 c -0.97,1.08 -2.27,2.53 -3.92,4.35 -1.64,1.83 -3.41,3.84 -5.29,6.05 -1.89,2.2 -3.78,4.51 -5.7,6.93 -1.91,2.42 -3.65,4.76 -5.21,7.01 h 20.52 v 10 h -35.07 v -7.09 c 1.13,-1.94 2.49,-4.02 4.07,-6.25 1.58,-2.23 3.25,-4.47 5,-6.73 1.75,-2.26 3.48,-4.45 5.2,-6.57 1.72,-2.12 3.31,-4.04 4.76,-5.76 h -18.06 v -10 h 33.7 z"
       id="path6" />
    <path
       class="cls-1"
       d="m 325.12,21 12.01,-1.93 v 12.49 h 14.43 v 10 h -14.43 v 14.91 c 0,2.53 0.44,4.54 1.33,6.05 0.89,1.5 2.67,2.26 5.36,2.26 1.29,0 2.62,-0.12 3.99,-0.36 1.37,-0.24 2.62,-0.58 3.75,-1.01 l 1.69,9.35 c -1.45,0.59 -3.06,1.1 -4.84,1.53 -1.77,0.43 -3.95,0.65 -6.53,0.65 -3.28,0 -5.99,-0.44 -8.14,-1.33 -2.15,-0.89 -3.87,-2.12 -5.16,-3.71 -1.29,-1.58 -2.19,-3.51 -2.7,-5.76 -0.51,-2.26 -0.77,-4.76 -0.77,-7.5 V 21 Z"
       id="path7" />
    <path
       class="cls-1"
       d="m 374.94,30.43 c 3.55,0 6.5,0.4 8.87,1.21 2.36,0.81 4.26,1.96 5.68,3.47 1.42,1.51 2.43,3.33 3.02,5.48 0.59,2.15 0.89,4.54 0.89,7.17 v 24.99 c -1.72,0.38 -4.11,0.82 -7.17,1.33 -3.06,0.51 -6.77,0.77 -11.12,0.77 -2.74,0 -5.23,-0.24 -7.46,-0.73 -2.23,-0.48 -4.15,-1.28 -5.76,-2.38 -1.61,-1.1 -2.85,-2.54 -3.71,-4.31 -0.86,-1.77 -1.29,-3.95 -1.29,-6.53 0,-2.58 0.5,-4.57 1.49,-6.29 0.99,-1.72 2.32,-3.09 3.99,-4.11 1.67,-1.02 3.57,-1.76 5.72,-2.22 2.15,-0.46 4.38,-0.69 6.69,-0.69 1.56,0 2.94,0.07 4.15,0.2 1.21,0.13 2.19,0.31 2.94,0.52 v -1.13 c 0,-2.04 -0.62,-3.68 -1.85,-4.92 -1.24,-1.24 -3.39,-1.85 -6.45,-1.85 -2.04,0 -4.06,0.15 -6.05,0.44 -1.99,0.3 -3.71,0.71 -5.16,1.25 l -1.53,-9.67 c 0.7,-0.21 1.57,-0.44 2.62,-0.69 1.05,-0.24 2.19,-0.46 3.43,-0.65 1.24,-0.19 2.54,-0.35 3.91,-0.48 1.37,-0.13 2.75,-0.2 4.15,-0.2 z m 0.97,35.15 c 1.18,0 2.31,-0.03 3.39,-0.08 1.07,-0.05 1.93,-0.13 2.58,-0.24 v -9.11 c -0.48,-0.11 -1.21,-0.21 -2.18,-0.32 -0.97,-0.11 -1.85,-0.16 -2.66,-0.16 -1.13,0 -2.19,0.07 -3.18,0.2 -1,0.13 -1.87,0.39 -2.62,0.77 -0.75,0.38 -1.34,0.89 -1.77,1.53 -0.43,0.65 -0.65,1.45 -0.65,2.42 0,1.88 0.63,3.18 1.89,3.91 1.26,0.73 3,1.09 5.2,1.09 z"
       id="path8" />
  </g>
  <g
     id="g10"
     transform="translate(53.3,31.73)">
    <path
       class="cls-2"
       d="M 22.74,44.95 C 35.03,44.81 44.95,34.8 44.95,22.48 c 0,-0.09 0,-0.18 0,-0.26 v 0 V 0 H 22.74 C 22.65,0 22.56,0 22.48,0 10.15,0 0.15,9.92 0,22.21 v 0 22.74 z M 18.5,37.36 H 7.43 v -11.07 0 c 0.07,-5.98 4.94,-10.81 10.94,-10.81 0.04,0 0.09,0 0.13,0 v 0 c 0,0 10.81,0 10.81,0 v 10.81 0 c 0,0 0,0.09 0,0.13 0,6 -4.83,10.87 -10.81,10.94 z"
       id="path9" />
    <path
       class="cls-2"
       d="M 50.47,73.3 C 50.47,59.46 39.33,48.23 25.53,48.07 v 0 c 0,0 -25.53,0 -25.53,0 v 25.53 0 c 0.16,13.8 11.39,24.94 25.23,24.94 0.1,0 0.2,0 0.3,0 v 0 c 0,0 24.94,0 24.94,0 v -24.94 0 c 0,-0.1 0,-0.2 0,-0.3 z M 33.38,68.27 V 81.09 H 20.56 c -0.05,0 -0.1,0 -0.15,0 -7.11,0 -12.89,-5.73 -12.97,-12.82 v 0 -13.13 h 13.13 c 7.1,0.09 12.82,5.86 12.82,12.97 0,0.05 0,0.1 0,0.15 v 0 z"
       id="path10" />
  </g>
</svg>
