<?xml version="1.0" encoding="UTF-8"?>
<svg id="Calque_1" data-name="Calque 1" xmlns="http://www.w3.org/2000/svg" viewBox="0 0 393.4 98.54">
  <defs>
    <style>
      .cls-1 {
        fill: #26507d;
      }

      .cls-1, .cls-2 {
        stroke-width: 0px;
      }

      .cls-2 {
        fill: #008a8c;
      }
    </style>
  </defs>
  <g>
    <path class="cls-1" d="m90.38,74.69c-3.06,0-6.11-.09-9.15-.28-3.04-.19-6.19-.63-9.47-1.33V18.9c2.58-.48,5.4-.85,8.46-1.09,3.06-.24,5.91-.36,8.54-.36,3.55,0,6.81.26,9.79.77,2.98.51,5.55,1.38,7.7,2.62,2.15,1.24,3.83,2.86,5.04,4.88,1.21,2.02,1.81,4.5,1.81,7.46,0,4.46-2.15,7.98-6.45,10.56,3.55,1.34,5.97,3.17,7.25,5.48,1.29,2.31,1.93,4.92,1.93,7.82,0,5.86-2.14,10.27-6.41,13.22-4.27,2.96-10.63,4.43-19.06,4.43Zm-6.37-34.66h6.13c3.87,0,6.64-.5,8.3-1.49,1.67-.99,2.5-2.59,2.5-4.8s-.86-3.84-2.58-4.76c-1.72-.91-4.25-1.37-7.58-1.37-1.08,0-2.23.01-3.47.04-1.24.03-2.34.09-3.31.2v12.17Zm0,9.59v14.43c.91.11,1.91.19,2.98.24,1.07.05,2.26.08,3.55.08,3.76,0,6.8-.54,9.11-1.61,2.31-1.07,3.47-3.06,3.47-5.97,0-2.58-.97-4.42-2.9-5.52-1.93-1.1-4.7-1.65-8.3-1.65h-7.9Z"/>
    <path class="cls-1" d="m164.79,52.68c0,3.33-.48,6.38-1.45,9.15-.97,2.77-2.37,5.13-4.19,7.09-1.83,1.96-4.02,3.48-6.57,4.55-2.55,1.07-5.41,1.61-8.58,1.61s-5.95-.54-8.5-1.61c-2.55-1.07-4.74-2.59-6.57-4.55-1.83-1.96-3.25-4.33-4.27-7.09-1.02-2.77-1.53-5.82-1.53-9.15s.52-6.37,1.57-9.11c1.05-2.74,2.5-5.08,4.35-7.01s4.06-3.44,6.61-4.51c2.55-1.07,5.33-1.61,8.34-1.61s5.87.54,8.42,1.61c2.55,1.08,4.74,2.58,6.57,4.51,1.83,1.93,3.25,4.27,4.27,7.01,1.02,2.74,1.53,5.78,1.53,9.11Zm-12.25,0c0-3.71-.74-6.62-2.22-8.75-1.48-2.12-3.59-3.18-6.33-3.18s-4.86,1.06-6.37,3.18c-1.5,2.12-2.26,5.04-2.26,8.75s.75,6.65,2.26,8.83c1.5,2.18,3.63,3.26,6.37,3.26s4.85-1.09,6.33-3.26c1.48-2.18,2.22-5.12,2.22-8.83Z"/>
    <path class="cls-1" d="m189.29,30.43c3.55,0,6.5.4,8.87,1.21,2.36.81,4.26,1.96,5.68,3.47,1.42,1.51,2.43,3.33,3.02,5.48.59,2.15.89,4.54.89,7.17v24.99c-1.72.38-4.11.82-7.17,1.33-3.06.51-6.77.77-11.12.77-2.74,0-5.23-.24-7.46-.73-2.23-.48-4.15-1.28-5.76-2.38-1.61-1.1-2.85-2.54-3.71-4.31-.86-1.77-1.29-3.95-1.29-6.53s.5-4.57,1.49-6.29c.99-1.72,2.32-3.09,3.99-4.11,1.67-1.02,3.57-1.76,5.72-2.22,2.15-.46,4.38-.69,6.69-.69,1.56,0,2.94.07,4.15.2,1.21.13,2.19.31,2.94.52v-1.13c0-2.04-.62-3.68-1.85-4.92-1.24-1.24-3.39-1.85-6.45-1.85-2.04,0-4.06.15-6.05.44-1.99.3-3.71.71-5.16,1.25l-1.53-9.67c.7-.21,1.57-.44,2.62-.69,1.05-.24,2.19-.46,3.43-.65,1.24-.19,2.54-.35,3.91-.48,1.37-.13,2.75-.2,4.15-.2Zm.97,35.15c1.18,0,2.31-.03,3.39-.08,1.07-.05,1.93-.13,2.58-.24v-9.11c-.48-.11-1.21-.21-2.18-.32-.97-.11-1.85-.16-2.66-.16-1.13,0-2.19.07-3.18.2-1,.13-1.87.39-2.62.77-.75.38-1.34.89-1.77,1.53-.43.65-.65,1.45-.65,2.42,0,1.88.63,3.18,1.89,3.91,1.26.73,3,1.09,5.2,1.09Z"/>
    <path class="cls-1" d="m229.18,73.96c-2.75-5.37-5.54-11.66-8.38-18.86-2.83-7.2-5.52-15.05-8.05-23.54h12.74c.54,2.1,1.17,4.37,1.9,6.81.73,2.45,1.48,4.92,2.27,7.42.78,2.5,1.56,4.93,2.35,7.3.78,2.37,1.55,4.51,2.31,6.45.7-1.93,1.46-4.08,2.26-6.45.81-2.36,1.6-4.8,2.39-7.3s1.54-4.97,2.27-7.42c.73-2.44,1.36-4.72,1.9-6.81h12.42c-2.53,8.49-5.22,16.34-8.04,23.54-2.83,7.2-5.62,13.49-8.37,18.86h-9.97Z"/>
    <path class="cls-1" d="m275.07,19.31c0,2.2-.71,3.94-2.14,5.2-1.42,1.26-3.1,1.89-5.04,1.89s-3.62-.63-5.04-1.89c-1.42-1.26-2.14-3-2.14-5.2s.71-3.94,2.14-5.2c1.42-1.26,3.1-1.89,5.04-1.89s3.61.63,5.04,1.89c1.42,1.26,2.14,3,2.14,5.2Zm-1.13,54.66h-12.01V31.56h12.01v42.4Z"/>
    <path class="cls-1" d="m317.06,39.62c-.97,1.08-2.27,2.53-3.92,4.35-1.64,1.83-3.41,3.84-5.29,6.05-1.89,2.2-3.78,4.51-5.7,6.93-1.91,2.42-3.65,4.76-5.21,7.01h20.52v10h-35.07v-7.09c1.13-1.94,2.49-4.02,4.07-6.25,1.58-2.23,3.25-4.47,5-6.73,1.75-2.26,3.48-4.45,5.2-6.57,1.72-2.12,3.31-4.04,4.76-5.76h-18.06v-10h33.7v8.06Z"/>
    <path class="cls-1" d="m325.12,21l12.01-1.93v12.49h14.43v10h-14.43v14.91c0,2.53.44,4.54,1.33,6.05.89,1.5,2.67,2.26,5.36,2.26,1.29,0,2.62-.12,3.99-.36,1.37-.24,2.62-.58,3.75-1.01l1.69,9.35c-1.45.59-3.06,1.1-4.84,1.53-1.77.43-3.95.65-6.53.65-3.28,0-5.99-.44-8.14-1.33-2.15-.89-3.87-2.12-5.16-3.71-1.29-1.58-2.19-3.51-2.7-5.76-.51-2.26-.77-4.76-.77-7.5V21Z"/>
    <path class="cls-1" d="m374.94,30.43c3.55,0,6.5.4,8.87,1.21,2.36.81,4.26,1.96,5.68,3.47,1.42,1.51,2.43,3.33,3.02,5.48.59,2.15.89,4.54.89,7.17v24.99c-1.72.38-4.11.82-7.17,1.33-3.06.51-6.77.77-11.12.77-2.74,0-5.23-.24-7.46-.73-2.23-.48-4.15-1.28-5.76-2.38-1.61-1.1-2.85-2.54-3.71-4.31-.86-1.77-1.29-3.95-1.29-6.53s.5-4.57,1.49-6.29c.99-1.72,2.32-3.09,3.99-4.11,1.67-1.02,3.57-1.76,5.72-2.22,2.15-.46,4.38-.69,6.69-.69,1.56,0,2.94.07,4.15.2,1.21.13,2.19.31,2.94.52v-1.13c0-2.04-.62-3.68-1.85-4.92-1.24-1.24-3.39-1.85-6.45-1.85-2.04,0-4.06.15-6.05.44-1.99.3-3.71.71-5.16,1.25l-1.53-9.67c.7-.21,1.57-.44,2.62-.69,1.05-.24,2.19-.46,3.43-.65,1.24-.19,2.54-.35,3.91-.48,1.37-.13,2.75-.2,4.15-.2Zm.97,35.15c1.18,0,2.31-.03,3.39-.08,1.07-.05,1.93-.13,2.58-.24v-9.11c-.48-.11-1.21-.21-2.18-.32-.97-.11-1.85-.16-2.66-.16-1.13,0-2.19.07-3.18.2-1,.13-1.87.39-2.62.77-.75.38-1.34.89-1.77,1.53-.43.65-.65,1.45-.65,2.42,0,1.88.63,3.18,1.89,3.91,1.26.73,3,1.09,5.2,1.09Z"/>
  </g>
  <g>
    <path class="cls-2" d="m22.74,44.95c12.29-.14,22.21-10.15,22.21-22.47,0-.09,0-.18,0-.26h0V0h-22.21c-.09,0-.18,0-.26,0C10.15,0,.15,9.92,0,22.21h0v22.74h22.74Zm-4.24-7.59H7.43v-11.07h0c.07-5.98,4.94-10.81,10.94-10.81.04,0,.09,0,.13,0h0s10.81,0,10.81,0v10.81h0s0,.09,0,.13c0,6-4.83,10.87-10.81,10.94h0Z"/>
    <path class="cls-2" d="m50.47,73.3c0-13.84-11.14-25.07-24.94-25.23h0s-25.53,0-25.53,0v25.53h0c.16,13.8,11.39,24.94,25.23,24.94.1,0,.2,0,.3,0h0s24.94,0,24.94,0v-24.94h0c0-.1,0-.2,0-.3Zm-17.09-5.03v12.82h-12.82c-.05,0-.1,0-.15,0-7.11,0-12.89-5.73-12.97-12.82h0v-13.13h13.13c7.1.09,12.82,5.86,12.82,12.97,0,.05,0,.1,0,.15h0Z"/>
  </g>
</svg>