<?xml version="1.0" encoding="UTF-8" standalone="no"?>
<svg
   width="185"
   height="59.464287"
   viewBox="0 0 185 59.464282"
   version="1.1"
   id="svg22"
   sodipodi:docname="bpi.svg"
   inkscape:version="1.2.2 (b0a8486541, 2022-12-01)"
   xmlns:inkscape="http://www.inkscape.org/namespaces/inkscape"
   xmlns:sodipodi="http://sodipodi.sourceforge.net/DTD/sodipodi-0.dtd"
   xmlns="http://www.w3.org/2000/svg"
   xmlns:svg="http://www.w3.org/2000/svg">
  <sodipodi:namedview
     id="namedview24"
     pagecolor="#ffffff"
     bordercolor="#666666"
     borderopacity="1.0"
     inkscape:showpageshadow="2"
     inkscape:pageopacity="0.0"
     inkscape:pagecheckerboard="0"
     inkscape:deskcolor="#d1d1d1"
     showgrid="false"
     inkscape:zoom="8.0059524"
     inkscape:cx="91.806691"
     inkscape:cy="22.670632"
     inkscape:window-width="1920"
     inkscape:window-height="1131"
     inkscape:window-x="0"
     inkscape:window-y="0"
     inkscape:window-maximized="1"
     inkscape:current-layer="svg22" />
  <defs
     id="defs4">
    <style
       id="style2">.a{fill:#4b3c3c}.b{fill:#ffcd00}.c{fill:none;stroke:#4b3c3c;stroke-miterlimit:10;stroke-width:1.589px}</style>
  </defs>
  <g
     id="g288"
     transform="translate(8.6293216,17.558712)">
    <path
       class="a"
       d="m 165.324,10.179 h 0.392 c 0.364,0 0.447,0.14 0.447,0.755 0,0.643 -0.112,0.755 -0.447,0.755 h -0.392 z m 0,5.984 v -3.132 h 0.392 c 0.308,0 0.475,0.112 0.475,0.364 v 2.489 a 0.729,0.729 0 0 0 0.084,0.308 h 1.51 c -0.112,-0.112 -0.112,-0.224 -0.112,-0.783 v -1.594 c 0,-0.923 -0.28,-1.342 -0.895,-1.426 a 1.041,1.041 0 0 0 0.867,-1.119 v -0.923 c 0,-1.174 -0.587,-1.482 -1.9,-1.482 h -1.9 v 7.3 z m -2.852,-7.3 h -1.482 v 7.3 h 1.482 z m -4.279,5.145 -1.286,-5.145 h -1.9 v 7.3 h 1.4 v -5.089 l 1.314,5.089 h 1.874 v -7.3 h -1.4 z m -7.411,2.153 h 3.076 v -1.336 h -1.566 v -1.818 h 1.51 v -1.314 h -1.51 v -1.482 h 1.566 V 8.897 h -3.076 z m -2.461,-7.3 -0.7,5.649 -0.7,-5.649 h -1.538 l 1.23,7.3 h 1.985 l 1.23,-7.3 z m -5.089,1.23 0.336,3.44 h -0.727 z m -0.7,6.068 0.14,-1.286 h 1.035 l 0.168,1.286 h 1.538 l -1.23,-7.3 h -1.985 l -1.23,7.3 z m -3.607,-7.3 v 1.314 h 0.5 l -0.615,1.314 h 0.755 l 0.7,-1.314 V 8.865 Z m 0.7,7.3 v -1.334 h -1.567 v -5.96 h -1.482 v 7.3 z m -8.473,-5.984 h 0.391 c 0.364,0 0.447,0.14 0.447,0.755 0,0.643 -0.112,0.755 -0.447,0.755 h -0.391 z m 0,5.984 v -3.132 h 0.391 c 0.308,0 0.475,0.112 0.475,0.364 v 2.489 a 0.73,0.73 0 0 0 0.084,0.308 h 1.51 C 133.5,16.076 133.5,15.964 133.5,15.405 v -1.59 c 0,-0.923 -0.28,-1.342 -0.895,-1.426 a 1.041,1.041 0 0 0 0.867,-1.119 v -0.923 c 0,-1.174 -0.587,-1.482 -1.9,-1.482 h -1.9 v 7.3 z m -2.88,-7.3 h -1.482 v 7.3 h 1.482 z m -3.971,0 -0.7,5.649 -0.7,-5.649 h -1.538 l 1.23,7.3 h 1.985 l 1.23,-7.3 z m -5.817,1.314 h 0.392 c 0.364,0 0.447,0.14 0.447,0.755 0,0.643 -0.112,0.755 -0.447,0.755 h -0.392 z m 0,5.984 v -3.132 h 0.392 c 0.308,0 0.475,0.112 0.475,0.364 v 2.489 a 0.73,0.73 0 0 0 0.084,0.308 h 1.51 c -0.112,-0.112 -0.112,-0.224 -0.112,-0.783 v -1.588 c 0,-0.923 -0.28,-1.342 -0.895,-1.426 a 1.041,1.041 0 0 0 0.867,-1.119 v -0.923 c 0,-1.174 -0.587,-1.482 -1.9,-1.482 h -1.93 v 7.3 z m -5.733,0 h 3.076 v -1.332 h -1.569 v -1.818 h 1.51 v -1.314 h -1.51 v -1.482 h 1.566 V 8.897 h -3.076 z M 111.66,11.04 v -0.559 c 0,-1.286 -0.615,-1.762 -1.874,-1.762 -1.426,0 -1.93,0.559 -1.93,1.846 0,2.433 2.349,2.265 2.349,3.775 0,0.419 -0.112,0.615 -0.42,0.615 -0.308,0 -0.419,-0.2 -0.419,-0.615 v -0.5 h -1.482 v 0.671 c 0,1.342 0.559,1.762 1.9,1.762 1.454,0 1.93,-0.475 1.93,-1.986 0,-2.377 -2.349,-2.377 -2.349,-3.663 0,-0.419 0.112,-0.615 0.419,-0.615 0.307,0 0.42,0.2 0.42,0.615 v 0.419 z"
       id="path6" />
    <path
       class="b"
       d="m 71.393,8.165 c -1.147,0 -1.706,2.041 -1.342,5.089 0.419,3.691 3.719,3.691 5.956,2.741 v 1.818 a 13.245,13.245 0 0 1 -3.468,0.475 5.745,5.745 0 0 1 -6.208,-6.012 c 0,-2.349 0.839,-5.593 5.285,-5.593 a 4.332,4.332 0 0 1 4.67,4.5 h -3.555 c 0,-1.622 -0.336,-3.02 -1.342,-3.02 m 15.725,4.253 h -6.432 v 0.056 c 0.224,4.558 3.607,4.446 6.012,3.5 v 1.818 a 12.256,12.256 0 0 1 -3.384,0.475 c -5.481,0 -6.292,-4.055 -6.292,-6.152 0,-2.4 1.035,-5.481 5.229,-5.453 3.076,0 4.866,1.958 4.866,4.642 z m -3.775,-1.594 v -0.224 c -0.056,-1.119 -0.28,-2.4 -1.23,-2.4 -0.923,0 -1.258,1.091 -1.37,2.573 v 0.084 h 2.6 z m -30.99,7.131 h -6.015 c -2.209,0 -3.8,-0.895 -3.8,-3.356 a 3.373,3.373 0 0 1 2.489,-3.412 8.823,8.823 0 0 1 2.013,-0.391 c 0.643,-0.056 1.175,-0.056 1.538,-0.056 h 0.056 v -0.336 c 0,-2.573 -2.573,-2.293 -4,-1.874 A 7.144,7.144 0 0 0 43.903,8.78 V 7.102 a 13.359,13.359 0 0 1 3.524,-0.391 c 3.216,0 4.95,1.51 4.95,4.027 z m -3.715,-1.542 v -4.278 h -0.056 a 2.208,2.208 0 0 0 -2.265,2.349 c 0,1.734 0.839,1.9 1.65,1.93 z"
       id="path8" />
    <path
       class="a"
       d="M 27.153,7.047 V 17.953 H 23.434 V 7.047 Z"
       id="path10" />
    <path
       class="b"
       d="m 42.449,8.278 a 2.122,2.122 0 0 0 -2.237,2.4 v 7.243 h -3.719 v -7.355 c 0,-2.209 2.041,-3.887 5.2,-3.887 h 0.755 z M 36.437,2.461 v 1.566 c -0.364,0 -0.727,0 -1.091,0.028 a 3.107,3.107 0 0 0 -1.035,0.224 1.748,1.748 0 0 0 -1.035,1.846 v 0.923 h 2.629 v 1.594 h -2.629 v 9.284 H 29.558 V 6.991 c 0,-4.055 2.768,-4.53 6.152,-4.53 z m 28.244,15.492 h -3.747 v -6.544 c 0,-2.573 -0.979,-2.713 -2.349,-2.741 h -0.252 v 9.284 H 54.614 V 7.019 c 0.308,0.028 1.314,0.056 4.67,0.056 5.4,0 5.425,2.517 5.425,4.53 z"
       id="path12" />
    <path
       class="a"
       d="m 25.303,4.81 a 2.4,2.4 0 1 1 2.4,-2.4 2.4,2.4 0 0 1 -2.4,2.4"
       id="path14" />
    <path
       class="b"
       d="m 25.303,25 a 2.4,2.4 0 1 1 2.4,-2.4 2.4,2.4 0 0 1 -2.4,2.4"
       id="path16" />
    <path
       class="a"
       d="M 0,17.953 V 2.461 h 3.747 v 4.586 h 1.175 c 2.6,0 3.887,1.007 4.53,2.181 a 6.564,6.564 0 0 1 0.643,3.16 c 0,1.734 -0.531,5.537 -4.838,5.537 H 0 Z M 6.32,12.36 C 6.32,9.983 5.761,8.529 4.055,8.529 H 3.747 v 7.914 h 0.364 c 1.65,0 2.209,-1.594 2.209,-4.083 m 15.497,0.252 a 6.564,6.564 0 0 1 -0.643,3.16 c -0.643,1.175 -1.93,2.181 -4.53,2.181 h -1.18 v 4.586 H 11.717 V 7.047 h 5.257 c 4.306,0 4.838,3.831 4.838,5.565 M 15.464,8.529 v 7.918 h 0.308 c 1.706,0 2.265,-1.454 2.265,-3.831 0,-2.489 -0.559,-4.083 -2.209,-4.083 z"
       id="path18" />
    <path
       class="c"
       d="M 97.567,1.063 V 23.966"
       id="path20" />
  </g>
</svg>
