<?xml version="1.0" encoding="UTF-8" standalone="no"?>
<svg
   id="Calque_1"
   data-name="Calque 1"
   viewBox="0 0 250 81"
   version="1.1"
   width="250"
   height="81"
   xmlns="http://www.w3.org/2000/svg"
   xmlns:svg="http://www.w3.org/2000/svg">
  <defs
     id="defs1">
    <style
       id="style1">.cls-1{fill:#4BD2AF;}.cls-2{fill:#00004B;}.cls-3{fill:#fff;}</style>
  </defs>
  <path
     class="cls-1"
     d="M 35.470438,65.490798 A 24.990798,24.990798 0 1 0 10.47964,40.499999 25.065771,25.065771 0 0 0 35.470438,65.490798 Z"
     id="path1"
     style="stroke-width:1.24954" />
  <path
     class="cls-2"
     d="m 72.706728,46.997607 a 6.5475892,6.5475892 0 0 1 -2.49908,-0.999632 l 1.749356,-3.373758 a 8.7467794,8.7467794 0 0 0 4.498343,1.24954 4.4858483,4.4858483 0 0 0 1.374494,-0.249908 c 0.374862,-0.124954 0.499816,-0.374862 0.499816,-0.499816 0,-0.124954 -0.124954,-0.374862 -0.499816,-0.499816 l -1.499448,-0.499816 a 23.591314,23.591314 0 0 1 -2.249171,-0.749724 3.411244,3.411244 0 0 1 -1.499448,-1.124586 2.5865476,2.5865476 0 0 1 -0.62477,-1.999264 4.6232977,4.6232977 0 0 1 0.749724,-2.624033 4.9981597,4.9981597 0 0 1 2.374126,-1.749356 10.446154,10.446154 0 0 1 3.623665,-0.62477 18.743099,18.743099 0 0 1 2.748988,0.249908 9.3840448,9.3840448 0 0 1 2.249172,0.874678 l -1.624402,3.373757 a 4.3858851,4.3858851 0 0 0 -1.749356,-0.749723 9.7089251,9.7089251 0 0 0 -1.999264,-0.249908 4.6607839,4.6607839 0 0 0 -1.499448,0.249908 0.63726536,0.63726536 0 0 0 -0.499816,0.624769 0.46232977,0.46232977 0 0 0 0.499816,0.499816 c 0.374862,0.124954 0.874678,0.249908 1.499448,0.499816 0.874678,0.249908 1.624402,0.499816 2.249172,0.62477 a 3.411244,3.411244 0 0 1 1.499448,1.124586 2.4990798,2.4990798 0 0 1 0.62477,1.87431 3.9235553,3.9235553 0 0 1 -0.874678,2.624034 4.9981597,4.9981597 0 0 1 -2.374126,1.749356 10.446154,10.446154 0 0 1 -3.623665,0.62477 24.341038,24.341038 0 0 1 -3.12385,-0.249908 z"
     id="path2"
     style="stroke-width:1.24954" />
  <path
     class="cls-2"
     d="m 98.947066,33.62753 -2.624034,13.495031 h -4.623298 l 0.999632,-4.99816 h -4.248435 l -0.999632,4.99816 H 82.952955 L 85.576989,33.62753 h 4.498344 l -0.874678,4.748251 h 4.248435 l 0.999632,-4.748251 z"
     id="path3"
     style="stroke-width:1.24954" />
  <path
     class="cls-2"
     d="m 100.82138,33.62753 h 4.49834 l -2.62404,13.495031 h -4.498338 z"
     id="path4"
     style="stroke-width:1.24954" />
  <path
     class="cls-2"
     d="m 111.19256,37.001288 -0.49982,2.249171 h 5.62293 l -0.62477,3.373758 h -5.62293 l -0.87468,4.37339 h -4.49834 l 2.62403,-13.495031 h 10.871 l -0.62477,3.373758 h -6.37265 z"
     id="path5"
     style="stroke-width:1.24954" />
  <path
     class="cls-2"
     d="m 121.81365,37.126242 h -3.87358 l 0.74973,-3.498712 h 12.37044 l -0.74972,3.498712 h -3.87358 l -1.99926,9.871365 h -4.49834 z"
     id="path6"
     style="stroke-width:1.24954" />
  <path
     class="cls-2"
     d="m 143.68059,42.124401 -0.99963,4.873206 h -4.49834 l 0.99963,-4.873206 -3.37376,-8.496871 h 4.49835 l 1.87431,4.623297 3.74862,-4.623297 h 4.49834 z"
     id="path7"
     style="stroke-width:1.24954" />
  <path
     class="cls-2"
     d="m 151.5527,46.497791 a 5.635425,5.635425 0 0 1 -2.37413,-2.124218 6.4976076,6.4976076 0 0 1 -0.87468,-3.12385 7.4972395,7.4972395 0 0 1 1.12459,-4.123481 8.2719542,8.2719542 0 0 1 2.99889,-2.873942 9.7963929,9.7963929 0 0 1 4.37339,-0.999632 8.546853,8.546853 0 0 1 3.62367,0.749724 5.635425,5.635425 0 0 1 2.37413,2.124218 6.4976076,6.4976076 0 0 1 0.87467,3.123849 7.4972395,7.4972395 0 0 1 -1.12458,4.123482 8.2719542,8.2719542 0 0 1 -2.9989,2.873942 9.7963929,9.7963929 0 0 1 -4.37339,0.999632 8.1594956,8.1594956 0 0 1 -3.62366,-0.749724 z m 5.74788,-3.373758 a 4.9981597,4.9981597 0 0 0 1.24954,-1.499448 5.885333,5.885333 0 0 0 0.49982,-1.999264 2.3616304,2.3616304 0 0 0 -0.74973,-1.87431 2.4990798,2.4990798 0 0 0 -1.87431,-0.749723 4.1359771,4.1359771 0 0 0 -1.87431,0.499815 3.8235921,3.8235921 0 0 0 -1.24954,1.499448 5.885333,5.885333 0 0 0 -0.49981,1.999264 2.3616304,2.3616304 0 0 0 0.74972,1.87431 2.4990798,2.4990798 0 0 0 1.87431,0.749724 3.0113912,3.0113912 0 0 0 1.87431,-0.499816 z"
     id="path8"
     style="stroke-width:1.24954" />
  <path
     class="cls-2"
     d="m 167.2969,46.747699 a 4.5483253,4.5483253 0 0 1 -1.99926,-1.749356 4.6232977,4.6232977 0 0 1 -0.74973,-2.624034 7.1723591,7.1723591 0 0 1 0.12496,-1.499448 l 1.49944,-7.372285 h 4.49835 l -1.49945,7.372285 a 2.7489878,2.7489878 0 0 0 -0.12495,0.999632 1.7118697,1.7118697 0 0 0 0.49981,1.374494 2.2741626,2.2741626 0 0 0 1.3745,0.499816 1.8743099,1.8743099 0 0 0 1.49944,-0.62477 5.7103974,5.7103974 0 0 0 0.87468,-2.124218 l 1.49945,-7.372285 h 4.49834 l -1.49945,7.622193 a 7.9720647,7.9720647 0 0 1 -2.49908,4.623298 7.5597165,7.5597165 0 0 1 -4.8732,1.499448 10.621089,10.621089 0 0 1 -3.12385,-0.62477 z"
     id="path9"
     style="stroke-width:1.24954" />
  <path
     class="cls-2"
     d="m 191.78788,41.124769 a 6.135241,6.135241 0 0 1 -2.62403,1.999264 l 2.24917,3.873574 h -4.74825 l -1.87431,-3.373758 h -1.12459 l -0.62477,3.373758 h -4.49834 l 2.62403,-13.495031 h 6.12275 a 6.7350201,6.7350201 0 0 1 4.12348,1.124586 3.8610783,3.8610783 0 0 1 1.49945,3.248803 8.3344312,8.3344312 0 0 1 -1.12459,3.248804 z m -5.37302,-4.123481 h -1.49945 l -0.62477,3.123849 h 1.87431 a 1.9867685,1.9867685 0 0 0 1.49945,-0.499816 1.7118697,1.7118697 0 0 0 0.49982,-1.374494 c 0,-0.749724 -0.62477,-1.249539 -1.74936,-1.249539 z"
     id="path10"
     style="stroke-width:1.24954" />
  <path
     class="cls-2"
     d="m 196.911,45.248251 2.87394,-2.748988 a 2.4241074,2.4241074 0 0 0 1.99926,1.24954 1.2495399,1.2495399 0 0 0 0.99963,-0.374862 1.5869157,1.5869157 0 0 0 0.49982,-1.124586 l 0.99963,-5.248067 h -4.49834 l 0.62477,-3.373758 h 8.99668 l -1.6244,8.496871 a 7.2098453,7.2098453 0 0 1 -2.12422,4.123482 6.7475155,6.7475155 0 0 1 -4.12348,1.24954 6.3351674,6.3351674 0 0 1 -4.62329,-2.249172 z"
     id="path11"
     style="stroke-width:1.24954" />
  <path
     class="cls-2"
     d="m 212.78015,46.497791 a 5.635425,5.635425 0 0 1 -2.37412,-2.124218 6.4976076,6.4976076 0 0 1 -0.87468,-3.12385 7.4972395,7.4972395 0 0 1 1.12458,-4.123481 8.2719542,8.2719542 0 0 1 2.9989,-2.873942 8.3844128,8.3844128 0 0 1 4.37339,-0.999632 8.546853,8.546853 0 0 1 3.62367,0.749724 5.635425,5.635425 0 0 1 2.37412,2.124218 6.4976076,6.4976076 0 0 1 0.87468,3.123849 7.4972395,7.4972395 0 0 1 -1.12459,4.123482 8.2719542,8.2719542 0 0 1 -2.99889,2.873942 9.7963929,9.7963929 0 0 1 -4.37339,0.999632 7.7971291,7.7971291 0 0 1 -3.62367,-0.749724 z m 5.87284,-3.373758 a 4.9981597,4.9981597 0 0 0 1.24954,-1.499448 5.885333,5.885333 0 0 0 0.49982,-1.999264 2.3616304,2.3616304 0 0 0 -0.74973,-1.87431 2.4990798,2.4990798 0 0 0 -1.87431,-0.749723 4.1359771,4.1359771 0 0 0 -1.87431,0.499815 3.8235921,3.8235921 0 0 0 -1.24954,1.499448 5.885333,5.885333 0 0 0 -0.49981,1.999264 2.3616304,2.3616304 0 0 0 0.74972,1.87431 2.4990798,2.4990798 0 0 0 1.87431,0.749724 3.5237026,3.5237026 0 0 0 1.87431,-0.499816 z"
     id="path12"
     style="stroke-width:1.24954" />
  <path
     class="cls-2"
     d="m 238.39572,41.124769 a 2.4990798,2.4990798 0 0 1 0.49982,1.624402 3.6236658,3.6236658 0 0 1 -1.74936,3.248804 7.9970555,7.9970555 0 0 1 -4.49834,1.124586 h -7.74715 l 2.62403,-13.495031 h 7.12238 a 6.2476996,6.2476996 0 0 1 3.62367,0.874678 2.848951,2.848951 0 0 1 1.24954,2.374126 3.7486197,3.7486197 0 0 1 -0.62477,1.999263 4.7607471,4.7607471 0 0 1 -1.74936,1.374494 2.8614464,2.8614464 0 0 1 1.24954,0.874678 z m -4.49834,2.374126 a 1.2495399,1.2495399 0 0 0 0.49981,-0.874678 0.68724695,0.68724695 0 0 0 -0.37486,-0.62477 1.7743467,1.7743467 0 0 0 -0.74972,-0.249908 h -2.87395 l -0.49981,2.124218 h 2.87394 a 1.5244387,1.5244387 0 0 0 1.12459,-0.374862 z m -2.49908,-6.747515 -0.37487,1.999263 h 2.37413 q 1.49945,0 1.49945,-1.124586 a 0.68724695,0.68724695 0 0 0 -0.37486,-0.624769 1.8118329,1.8118329 0 0 0 -0.87468,-0.249908 z"
     id="path13"
     style="stroke-width:1.24954" />
  <path
     class="cls-2"
     d="M 40.968414,29.379094 A 15.094442,15.094442 0 1 1 24.224579,54.494846 Z"
     id="path14"
     style="stroke-width:1.24954" />
  <path
     class="cls-3"
     d="M 47.840883,27.004968 30.972095,52.12072 c -7.747148,-5.123113 -10.246228,-14.994478 -5.62293,-21.866948 4.623298,-6.87247 14.744571,-8.371918 22.491718,-3.248804 z"
     id="path15"
     style="stroke-width:1.24954" />
</svg>
