<?xml version="1.0" encoding="UTF-8" standalone="no"?>
<svg
   id="Calque_1"
   data-name="Calque 1"
   viewBox="0 0 823.64055 307.57877"
   version="1.1"
   width="823.64056"
   height="307.57877"
   xmlns="http://www.w3.org/2000/svg"
   xmlns:svg="http://www.w3.org/2000/svg">
  <defs
     id="defs1">
    <style
       id="style1">
      .cls-1 {
        fill: none;
      }

      .cls-1, .cls-2, .cls-3, .cls-4, .cls-5 {
        stroke-width: 0px;
      }

      .cls-3 {
        fill: #b1d7bf;
      }

      .cls-4 {
        fill: #ffb402;
      }

      .cls-5 {
        fill: #016867;
      }
    </style>
  </defs>
  <g
     id="g16"
     transform="matrix(1.144634,0,0,1.144634,-93.14261,-109.85782)">
    <g
       id="g8">
      <g
         id="g7">
        <rect
           class="cls-5"
           x="105.14"
           y="255.25999"
           width="68.5"
           height="16.889999"
           transform="rotate(-48.51,139.39322,263.70879)"
           id="rect1" />
        <rect
           class="cls-5"
           x="105.14"
           y="255.25999"
           width="68.5"
           height="16.889999"
           transform="rotate(-13.51,-38.472045,339.98426)"
           id="rect2" />
        <rect
           class="cls-4"
           x="111.26"
           y="142.78999"
           width="16.889999"
           height="68.5"
           transform="rotate(-67.08,119.69796,177.03948)"
           id="rect3" />
        <rect
           class="cls-4"
           x="141.75"
           y="107.43"
           width="16.889999"
           height="68.5"
           transform="rotate(-31.37,150.18313,141.67987)"
           id="rect4" />
        <rect
           class="cls-3"
           x="161.34"
           y="122.33"
           width="68.5"
           height="16.889999"
           transform="rotate(-85.66,195.58144,130.77583)"
           id="rect5" />
        <rect
           class="cls-5"
           x="204.56"
           y="139.97"
           width="68.5"
           height="16.889999"
           transform="rotate(-49.94,238.8038,148.41457)"
           id="rect6" />
        <rect
           class="cls-4"
           x="229.36"
           y="179.53"
           width="68.5"
           height="16.889999"
           transform="rotate(-14.22,263.7071,188.03529)"
           id="rect7" />
      </g>
      <polygon
         class="cls-2"
         points="
         183.31,224.8
         183.31,363.21
         201.73,363.21
         201.73,203.97 "
         id="polygon7" />
    </g>
    <g
       id="g15">
      <path
         class="cls-2"
         d="m 238.03,363.14 v -95.69 h 42.24 c 20.8,0 34.27,12.41 34.27,30.74 0,12.2 -6.7,22.21 -17.84,27.01 l 21.65,38.01 h -20.87 l -19.53,-34.83 h -20.8 v 34.76 h -19.11 z m 19.11,-51.26 h 21.93 c 10.51,0 15.94,-6.42 15.94,-13.68 0,-7.97 -5.43,-14.24 -15.94,-14.24 h -21.93 z"
         id="path8" />
      <path
         class="cls-2"
         d="m 323.5,329.29 c 0.07,-20.66 14.74,-35.19 34.83,-35.19 18.62,0 32.79,12.48 32.79,33 0,2.47 -0.21,5.01 -0.63,7.69 h -48.94 c 1.34,7.97 9.45,13.54 18.05,13.54 6.7,0 12.48,-3.1 16.85,-9.52 l 12.83,9.59 c -6.35,10.58 -18.19,16.29 -30.11,16.29 -21.72,0 -35.68,-15.65 -35.68,-35.4 z m 50.77,-6.63 c -0.92,-7.54 -7.12,-13.33 -15.72,-13.33 -8.6,0 -15.72,5.64 -16.71,13.33 h 32.44 z"
         id="path9" />
      <path
         class="cls-2"
         d="m 403.62,350.17 32.01,-39.56 h -31.66 v -15.09 h 52.32 v 13.12 l -32.01,39.49 h 34.13 v 15.09 h -54.79 v -13.04 z"
         id="path10" />
      <path
         class="cls-2"
         d="m 465.78,329.37 c 0,-19.95 15.44,-35.26 36.17,-35.26 20.73,0 36.17,15.3 36.17,35.26 0,19.96 -15.37,35.26 -36.17,35.26 -20.8,0 -36.17,-15.23 -36.17,-35.26 z m 36.17,18.9 c 10.65,0 18.19,-8.04 18.19,-18.9 0,-10.86 -7.54,-18.83 -18.19,-18.83 -10.65,0 -18.19,8.04 -18.19,18.83 0,10.79 7.62,18.9 18.19,18.9 z"
         id="path11" />
      <path
         class="cls-2"
         d="m 545.79,310.54 v -15.02 h 12.06 v -6.63 c 0,-14.81 9.31,-26.37 27.92,-26.37 5.57,0 9.52,1.27 12.83,2.4 l -1.9,14.81 c -2.75,-1.2 -5.85,-1.69 -9.03,-1.69 -7.05,0 -12.34,3.17 -12.34,11.92 v 5.57 h 19.32 v 15.02 h -18.83 v 52.67 H 557.7 v -52.67 h -11.92 z"
         id="path12" />
      <path
         class="cls-2"
         d="m 602.13,329.37 c 0,-19.95 15.44,-35.26 36.17,-35.26 20.73,0 36.17,15.3 36.17,35.26 0,19.96 -15.37,35.26 -36.17,35.26 -20.8,0 -36.17,-15.23 -36.17,-35.26 z m 36.17,18.9 c 10.65,0 18.19,-8.04 18.19,-18.9 0,-10.86 -7.54,-18.83 -18.19,-18.83 -10.65,0 -18.19,8.04 -18.19,18.83 0,10.79 7.62,18.9 18.19,18.9 z"
         id="path13" />
      <path
         class="cls-2"
         d="m 687.6,295.52 h 17.49 l 0.35,9.24 c 3.46,-7.05 10.01,-10.65 17.63,-10.65 4.02,0 7.4,1.06 8.81,1.55 l -1.41,16.15 c -1.83,-0.63 -4.8,-1.55 -8.39,-1.55 -7.97,0 -16.36,4.3 -16.36,18.26 v 34.69 H 687.6 Z"
         id="path14" />
      <path
         class="cls-2"
         d="m 738.97,343.82 c 0,-12.76 11.7,-21.65 29.69,-21.65 4.65,0 9.87,0.78 14.24,2.33 v -1.55 c 0,-7.47 -6.06,-12.9 -14.67,-12.9 -7.83,0 -13.47,3.81 -17.91,8.53 l -10.37,-10.37 c 4.58,-5.92 14.6,-14.1 28.84,-14.1 19.82,0 32.15,10.51 32.15,27.43 v 41.67 h -17.21 v -7.54 c -3.67,5.5 -10.65,8.96 -19.18,8.96 -15.37,0 -25.6,-8.25 -25.6,-20.8 z m 17.13,-0.99 c 0,5.08 4.37,8.32 11.28,8.32 8.67,0 15.51,-5.78 15.51,-14.31 -3.31,-1.48 -7.62,-2.61 -12.97,-2.61 -8.25,0 -13.82,3.45 -13.82,8.6 z"
         id="path15" />
    </g>
  </g>
  <g
     id="g19"
     transform="translate(-38.568727,-38.646551)">
    <path
       class="cls-1"
       d="M 186.06,95.69 V 0 h 42.24 c 20.8,0 34.27,12.41 34.27,30.74 0,12.2 -6.7,22.21 -17.84,27.01 l 21.65,38.01 H 245.51 L 225.98,60.93 h -20.8 v 34.76 h -19.11 z m 19.11,-51.26 h 21.93 c 10.51,0 15.94,-6.42 15.94,-13.68 0,-7.97 -5.43,-14.24 -15.94,-14.24 h -21.93 z"
       id="path16" />
    <path
       class="cls-1"
       d="m 238.03,458.9 v -95.69 h 42.24 c 20.8,0 34.27,12.41 34.27,30.74 0,12.2 -6.7,22.21 -17.84,27.01 l 21.65,38.01 h -20.87 l -19.53,-34.83 h -20.8 v 34.76 h -19.11 z m 19.11,-51.26 h 21.93 c 10.51,0 15.94,-6.42 15.94,-13.68 0,-7.97 -5.43,-14.24 -15.94,-14.24 h -21.93 z"
       id="path17" />
    <path
       class="cls-1"
       d="m 800.95,382.04 v -95.69 h 42.24 c 20.8,0 34.27,12.41 34.27,30.74 0,12.2 -6.7,22.21 -17.84,27.01 l 21.65,38.01 H 860.4 l -19.53,-34.83 h -20.8 v 34.76 h -19.11 z m 19.11,-51.26 h 21.93 c 10.51,0 15.94,-6.42 15.94,-13.68 0,-7.97 -5.43,-14.24 -15.94,-14.24 h -21.93 z"
       id="path18" />
    <path
       class="cls-1"
       d="m 0,227.87 v -95.69 h 42.24 c 20.8,0 34.27,12.41 34.27,30.74 0,12.2 -6.7,22.21 -17.84,27.01 l 21.65,38.01 H 59.45 L 39.92,193.11 h -20.8 v 34.76 z m 19.11,-51.26 h 21.93 c 10.51,0 15.94,-6.42 15.94,-13.68 0,-7.97 -5.43,-14.24 -15.94,-14.24 H 19.11 Z"
       id="path19" />
  </g>
</svg>
