<?xml version="1.0" encoding="UTF-8"?>
<svg id="Calque_1" data-name="Calque 1" xmlns="http://www.w3.org/2000/svg" viewBox="0 0 881.27 458.97">
  <defs>
    <style>
      .cls-1 {
        fill: none;
      }

      .cls-1, .cls-2, .cls-3, .cls-4, .cls-5 {
        stroke-width: 0px;
      }

      .cls-3 {
        fill: #b1d7bf;
      }

      .cls-4 {
        fill: #ffb402;
      }

      .cls-5 {
        fill: #016867;
      }
    </style>
  </defs>
  <g>
    <g>
      <g>
        <rect class="cls-5" x="105.14" y="255.26" width="68.5" height="16.89" transform="translate(-150.49 193.42) rotate(-48.51)"/>
        <polygon class="cls-5" points="150.85 224.19 147.11 207.72 81.06 222.72 80.31 222.89 84.05 239.36 150.1 224.36 150.85 224.19"/>
        <rect class="cls-4" x="111.26" y="142.79" width="16.89" height="68.5" transform="translate(-89.98 218.34) rotate(-67.08)"/>
        <rect class="cls-4" x="141.75" y="107.43" width="16.89" height="68.5" transform="translate(-51.8 98.89) rotate(-31.37)"/>
        <rect class="cls-3" x="161.34" y="122.33" width="68.5" height="16.89" transform="translate(50.38 315.9) rotate(-85.66)"/>
        <rect class="cls-5" x="204.56" y="139.97" width="68.5" height="16.89" transform="translate(-28.48 235.67) rotate(-49.94)"/>
        <rect class="cls-4" x="229.36" y="179.53" width="68.5" height="16.89" transform="translate(-38.11 70.54) rotate(-14.22)"/>
      </g>
      <polygon class="cls-2" points="183.31 224.8 183.31 363.21 201.73 363.21 201.73 203.97 183.31 224.8"/>
    </g>
    <g>
      <path class="cls-2" d="m238.03,363.14v-95.69h42.24c20.8,0,34.27,12.41,34.27,30.74,0,12.2-6.7,22.21-17.84,27.01l21.65,38.01h-20.87l-19.53-34.83h-20.8v34.76h-19.11Zm19.11-51.26h21.93c10.51,0,15.94-6.42,15.94-13.68,0-7.97-5.43-14.24-15.94-14.24h-21.93v27.92Z"/>
      <path class="cls-2" d="m323.5,329.29c.07-20.66,14.74-35.19,34.83-35.19,18.62,0,32.79,12.48,32.79,33,0,2.47-.21,5.01-.63,7.69h-48.94c1.34,7.97,9.45,13.54,18.05,13.54,6.7,0,12.48-3.1,16.85-9.52l12.83,9.59c-6.35,10.58-18.19,16.29-30.11,16.29-21.72,0-35.68-15.65-35.68-35.4Zm50.77-6.63c-.92-7.54-7.12-13.33-15.72-13.33s-15.72,5.64-16.71,13.33h32.44Z"/>
      <path class="cls-2" d="m403.62,350.17l32.01-39.56h-31.66v-15.09h52.32v13.12l-32.01,39.49h34.13v15.09h-54.79v-13.04Z"/>
      <path class="cls-2" d="m465.78,329.37c0-19.95,15.44-35.26,36.17-35.26s36.17,15.3,36.17,35.26-15.37,35.26-36.17,35.26-36.17-15.23-36.17-35.26Zm36.17,18.9c10.65,0,18.19-8.04,18.19-18.9s-7.54-18.83-18.19-18.83-18.19,8.04-18.19,18.83,7.62,18.9,18.19,18.9Z"/>
      <path class="cls-2" d="m545.79,310.54v-15.02h12.06v-6.63c0-14.81,9.31-26.37,27.92-26.37,5.57,0,9.52,1.27,12.83,2.4l-1.9,14.81c-2.75-1.2-5.85-1.69-9.03-1.69-7.05,0-12.34,3.17-12.34,11.92v5.57h19.32v15.02h-18.83v52.67h-18.12v-52.67h-11.92Z"/>
      <path class="cls-2" d="m602.13,329.37c0-19.95,15.44-35.26,36.17-35.26s36.17,15.3,36.17,35.26-15.37,35.26-36.17,35.26-36.17-15.23-36.17-35.26Zm36.17,18.9c10.65,0,18.19-8.04,18.19-18.9s-7.54-18.83-18.19-18.83-18.19,8.04-18.19,18.83,7.62,18.9,18.19,18.9Z"/>
      <path class="cls-2" d="m687.6,295.52h17.49l.35,9.24c3.46-7.05,10.01-10.65,17.63-10.65,4.02,0,7.4,1.06,8.81,1.55l-1.41,16.15c-1.83-.63-4.8-1.55-8.39-1.55-7.97,0-16.36,4.3-16.36,18.26v34.69h-18.12v-67.69Z"/>
      <path class="cls-2" d="m738.97,343.82c0-12.76,11.7-21.65,29.69-21.65,4.65,0,9.87.78,14.24,2.33v-1.55c0-7.47-6.06-12.9-14.67-12.9-7.83,0-13.47,3.81-17.91,8.53l-10.37-10.37c4.58-5.92,14.6-14.1,28.84-14.1,19.82,0,32.15,10.51,32.15,27.43v41.67h-17.21v-7.54c-3.67,5.5-10.65,8.96-19.18,8.96-15.37,0-25.6-8.25-25.6-20.8Zm17.13-.99c0,5.08,4.37,8.32,11.28,8.32,8.67,0,15.51-5.78,15.51-14.31-3.31-1.48-7.62-2.61-12.97-2.61-8.25,0-13.82,3.45-13.82,8.6Z"/>
    </g>
  </g>
  <g>
    <path class="cls-1" d="m186.06,95.69V0h42.24c20.8,0,34.27,12.41,34.27,30.74,0,12.2-6.7,22.21-17.84,27.01l21.65,38.01h-20.87l-19.53-34.83h-20.8v34.76h-19.11Zm19.11-51.26h21.93c10.51,0,15.94-6.42,15.94-13.68,0-7.97-5.43-14.24-15.94-14.24h-21.93v27.92Z"/>
    <path class="cls-1" d="m238.03,458.9v-95.69h42.24c20.8,0,34.27,12.41,34.27,30.74,0,12.2-6.7,22.21-17.84,27.01l21.65,38.01h-20.87l-19.53-34.83h-20.8v34.76h-19.11Zm19.11-51.26h21.93c10.51,0,15.94-6.42,15.94-13.68,0-7.97-5.43-14.24-15.94-14.24h-21.93v27.92Z"/>
    <path class="cls-1" d="m800.95,382.04v-95.69h42.24c20.8,0,34.27,12.41,34.27,30.74,0,12.2-6.7,22.21-17.84,27.01l21.65,38.01h-20.87l-19.53-34.83h-20.8v34.76h-19.11Zm19.11-51.26h21.93c10.51,0,15.94-6.42,15.94-13.68,0-7.97-5.43-14.24-15.94-14.24h-21.93v27.92Z"/>
    <path class="cls-1" d="m0,227.87v-95.69h42.24c20.8,0,34.27,12.41,34.27,30.74,0,12.2-6.7,22.21-17.84,27.01l21.65,38.01h-20.87l-19.53-34.83h-20.8v34.76H0Zm19.11-51.26h21.93c10.51,0,15.94-6.42,15.94-13.68,0-7.97-5.43-14.24-15.94-14.24h-21.93v27.92Z"/>
  </g>
</svg>