<?xml version="1.0" encoding="utf-8"?>
<!-- Generator: Adobe Illustrator 27.8.0, SVG Export Plug-In . SVG Version: 6.00 Build 0)  -->
<svg version="1.1" id="Calque_1" xmlns="http://www.w3.org/2000/svg" xmlns:xlink="http://www.w3.org/1999/xlink" x="0px" y="0px"
	 viewBox="0 0 283.5 283.5" style="enable-background:new 0 0 283.5 283.5;" xml:space="preserve">
<style type="text/css">
	.st0{fill:#161615;}
	.st1{fill:#B1D7BF;}
	.st2{clip-path:url(#SVGID_00000119839104600443027200000008068610148505330823_);}
	.st3{fill:#FFFFFF;}
	.st4{fill:#FFB402;}
	.st5{fill:none;}
	.st6{fill:#016867;}
	.st7{clip-path:url(#SVGID_00000102533962453066632950000007101798805098635172_);}
	.st8{clip-path:url(#SVGID_00000073701435679159561680000014848690167635069365_);}
</style>
<g id="Groupe_21" transform="translate(-163 -1372)">
	
		<rect id="Rectangle_147" x="225.1" y="1560.6" transform="matrix(0.6623 -0.7493 0.7493 0.6623 -1087.9867 722.0104)" class="st0" width="63.5" height="14.6"/>
	
		<rect id="Rectangle_148" x="225.1" y="1560.6" transform="matrix(0.6623 -0.7493 0.7493 0.6623 -1087.9867 722.0104)" class="st1" width="63.5" height="14.6"/>
	
		<rect id="Rectangle_149" x="202.6" y="1522.4" transform="matrix(0.9751 -0.2219 0.2219 0.9751 -333.5367 90.1044)" class="st0" width="63.5" height="14.6"/>
	<g id="Groupe_16" transform="translate(163 1372)">
		<g>
			<defs>
				<rect id="SVGID_1_" x="36.7" y="36.7" width="210" height="210"/>
			</defs>
			<clipPath id="SVGID_00000175310168922394757120000010005203774661111950_">
				<use xlink:href="#SVGID_1_"  style="overflow:visible;"/>
			</clipPath>
			<g id="Groupe_15" style="clip-path:url(#SVGID_00000175310168922394757120000010005203774661111950_);">
				
					<rect id="Rectangle_150" x="39.6" y="150.4" transform="matrix(0.9752 -0.2215 0.2215 0.9752 -33.166 19.7149)" class="st3" width="63.5" height="14.6"/>
			</g>
		</g>
	</g>
	
		<rect id="Rectangle_152" x="230.9" y="1453.9" transform="matrix(0.3891 -0.9212 0.9212 0.3891 -1223.0175 1127.0194)" class="st4" width="14.6" height="63.5"/>
	
		<rect id="Rectangle_153" x="230.9" y="1453.9" transform="matrix(0.3891 -0.9212 0.9212 0.3891 -1223.0175 1127.0194)" class="st5" width="14.6" height="63.5"/>
	
		<rect id="Rectangle_154" x="259.9" y="1420.3" transform="matrix(0.8538 -0.5206 0.5206 0.8538 -716.8637 351.3402)" class="st0" width="14.6" height="63.5"/>
	
		<rect id="Rectangle_155" x="259.9" y="1420.3" transform="matrix(0.8538 -0.5206 0.5206 0.8538 -716.8637 351.3402)" class="st4" width="14.6" height="63.5"/>
	
		<rect id="Rectangle_156" x="278.4" y="1434.4" transform="matrix(7.595337e-02 -0.9971 0.9971 7.595337e-02 -1150.917 1641.5317)" class="st6" width="63.5" height="14.6"/>
	<g id="Groupe_18" transform="translate(163 1372)">
		<g>
			<defs>
				<rect id="SVGID_00000042695899591616482570000010187384273100566438_" x="36.7" y="36.7" width="210" height="210"/>
			</defs>
			<clipPath id="SVGID_00000177447478387846170000000008529039244106906757_">
				<use xlink:href="#SVGID_00000042695899591616482570000010187384273100566438_"  style="overflow:visible;"/>
			</clipPath>
			<g id="Groupe_17" style="clip-path:url(#SVGID_00000177447478387846170000000008529039244106906757_);">
				<path id="Tracé_583" class="st3" d="M137.5,100.8l4.8-63.3l14.5,1.1l-4.8,63.3L137.5,100.8z"/>
			</g>
		</g>
	</g>
	
		<rect id="Rectangle_159" x="319.5" y="1451.2" transform="matrix(0.644 -0.765 0.765 0.644 -990.7274 787.8882)" class="st6" width="63.5" height="14.6"/>
	
		<rect id="Rectangle_160" x="319.5" y="1451.2" transform="matrix(0.644 -0.765 0.765 0.644 -990.7274 787.8882)" class="st3" width="63.5" height="14.6"/>
	
		<rect id="Rectangle_161" x="343" y="1488.7" transform="matrix(0.9693 -0.2461 0.2461 0.9693 -356.5837 138.2036)" class="st6" width="63.5" height="14.6"/>
	
		<rect id="Rectangle_162" x="343" y="1488.7" transform="matrix(0.9693 -0.2461 0.2461 0.9693 -356.5837 138.2036)" class="st3" width="63.5" height="14.6"/>
	
		<rect id="Rectangle_163" x="364.6" y="1508.4" transform="matrix(0.3664 -0.9304 0.9304 0.3664 -1197.4218 1321.8894)" class="st6" width="14.6" height="63.5"/>
	
		<rect id="Rectangle_164" x="364.6" y="1508.4" transform="matrix(0.3664 -0.9304 0.9304 0.3664 -1197.4218 1321.8894)" class="st4" width="14.6" height="63.5"/>
	
		<rect id="Rectangle_165" x="336.6" y="1542.7" transform="matrix(0.8406 -0.5417 0.5417 0.8406 -798.0813 437.3011)" class="st1" width="14.6" height="63.6"/>
	
		<rect id="Rectangle_166" x="336.6" y="1542.7" transform="matrix(0.8406 -0.5417 0.5417 0.8406 -798.0813 437.3011)" class="st5" width="14.6" height="63.6"/>
	
		<rect id="Rectangle_167" x="269.3" y="1578.6" transform="matrix(5.098465e-02 -0.9987 0.9987 5.098465e-02 -1298.0667 1805.658)" class="st0" width="63.5" height="14.6"/>
	<g id="Groupe_20" transform="translate(163 1372)">
		<g>
			<defs>
				<rect id="SVGID_00000159438991445251304300000000745903182700560787_" x="36.7" y="36.7" width="210" height="210"/>
			</defs>
			<clipPath id="SVGID_00000084490831027275141890000014589180113689049006_">
				<use xlink:href="#SVGID_00000159438991445251304300000000745903182700560787_"  style="overflow:visible;"/>
			</clipPath>
			<g id="Groupe_19" style="clip-path:url(#SVGID_00000084490831027275141890000014589180113689049006_);">
				
					<rect id="Rectangle_168" x="106.3" y="206.6" transform="matrix(5.109845e-02 -0.9987 0.9987 5.109845e-02 -82.5703 340.7968)" class="st3" width="63.5" height="14.6"/>
			</g>
		</g>
	</g>
</g>
</svg>
